<?xml version="1.0" encoding="UTF-8" standalone="no"?>
<!-- Created with Inkscape (http://www.inkscape.org/) -->

<svg
   width="81.279999mm"
   height="128.5mm"
   viewBox="0 0 81.280005 128.50002"
   version="1.1"
   id="svg8"
   inkscape:version="1.3.2 (091e20e, 2023-11-25)"
   sodipodi:docname="MyModule_2.svg"
   xmlns:inkscape="http://www.inkscape.org/namespaces/inkscape"
   xmlns:sodipodi="http://sodipodi.sourceforge.net/DTD/sodipodi-0.dtd"
   xmlns="http://www.w3.org/2000/svg"
   xmlns:svg="http://www.w3.org/2000/svg"
   xmlns:rdf="http://www.w3.org/1999/02/22-rdf-syntax-ns#"
   xmlns:cc="http://creativecommons.org/ns#"
   xmlns:dc="http://purl.org/dc/elements/1.1/">
  <defs
     id="defs2" />
  <sodipodi:namedview
     id="base"
     pagecolor="#ffffff"
     bordercolor="#666666"
     borderopacity="1.0"
     inkscape:pageopacity="0.0"
     inkscape:pageshadow="2"
     inkscape:zoom="0.98994949"
     inkscape:cx="338.90618"
     inkscape:cy="213.64726"
     inkscape:document-units="mm"
     inkscape:current-layer="layer2"
     showgrid="false"
     units="mm"
     inkscape:snap-bbox="true"
     inkscape:snap-page="true"
     inkscape:bbox-nodes="false"
     inkscape:snap-bbox-edge-midpoints="false"
     inkscape:window-width="1600"
     inkscape:window-height="900"
     inkscape:window-x="0"
     inkscape:window-y="25"
     inkscape:window-maximized="0"
     inkscape:snap-bbox-midpoints="true"
     inkscape:snap-nodes="false"
     inkscape:showpageshadow="2"
     inkscape:pagecheckerboard="0"
     inkscape:deskcolor="#d1d1d1" />
  <metadata
     id="metadata5">
    <rdf:RDF>
      <cc:Work
         rdf:about="">
        <dc:format>image/svg+xml</dc:format>
        <dc:type
           rdf:resource="http://purl.org/dc/dcmitype/StillImage" />
      </cc:Work>
    </rdf:RDF>
  </metadata>
  <g
     inkscape:label="Layer 1"
     inkscape:groupmode="layer"
     id="layer1"
     transform="translate(0,-168.49997)">
    <rect
       style="display:inline;opacity:1;vector-effect:none;fill:#e6e6e6;fill-opacity:1;fill-rule:evenodd;stroke:none;stroke-width:1.0604;stroke-linecap:butt;stroke-linejoin:miter;stroke-miterlimit:4;stroke-dasharray:none;stroke-dashoffset:0;stroke-opacity:1;paint-order:normal"
       id="rect420"
       width="81.279999"
       height="128.5"
       x="5.9211732e-17"
       y="168.49997" />
    <g
       aria-label="My Module"
       style="font-style:normal;font-variant:normal;font-weight:normal;font-stretch:normal;font-size:4.93889px;line-height:6.61458px;font-family:'Gotham Rounded';-inkscape-font-specification:'Gotham Rounded';font-variant-ligatures:normal;font-variant-caps:normal;font-variant-numeric:normal;font-feature-settings:normal;text-align:center;letter-spacing:0px;word-spacing:0px;writing-mode:lr-tb;text-anchor:middle;display:inline;fill:#000000;fill-opacity:1;stroke:none;stroke-width:0.264583px;stroke-linecap:butt;stroke-linejoin:miter;stroke-opacity:1"
       id="text1229"
       transform="translate(25.399998,-2.6726953)">
      <path
         d="m 3.8783293,178.67396 c 0,0.1778 0.1397,0.3175 0.3174999,0.3175 0.1778,0 0.3217334,-0.1397 0.3217334,-0.3175 v -1.4732 l 0.5630333,0.86784 c 0.067733,0.1016 0.1524,0.1651 0.2709333,0.1651 0.1185333,0 0.2032,-0.0635 0.2709333,-0.1651 l 0.5715,-0.88054 v 1.47744 c 0,0.1778 0.1439333,0.32596 0.3217333,0.32596 0.1820333,0 0.3259666,-0.14393 0.3259666,-0.32596 v -2.35374 c 0,-0.18203 -0.1439333,-0.32596 -0.3259666,-0.32596 h -0.071967 c -0.1312333,0 -0.2243666,0.055 -0.2921,0.1651 l -0.7916333,1.28693 -0.7873999,-1.2827 c -0.059267,-0.0974 -0.1566333,-0.16933 -0.2963333,-0.16933 h -0.071967 c -0.1820333,0 -0.3259666,0.14393 -0.3259666,0.32596 z"
         style="font-style:normal;font-variant:normal;font-weight:normal;font-stretch:normal;font-size:4.23333px;font-family:'Gotham Rounded';-inkscape-font-specification:'Gotham Rounded';text-align:center;text-anchor:middle;stroke-width:0.264583px"
         id="path5029" />
      <path
         d="m 7.9515894,179.6561 c 0.3852333,0 0.5757333,-0.17357 0.7662333,-0.635 l 0.7916333,-1.90077 c 0.0127,-0.0296 0.029633,-0.1016 0.029633,-0.1524 0,-0.16933 -0.1397,-0.29633 -0.3048,-0.29633 -0.1651,0 -0.2582333,0.11006 -0.3090333,0.24553 l -0.474133,1.31657 -0.4910667,-1.3208 c -0.055033,-0.1524 -0.1481666,-0.2413 -0.3090333,-0.2413 -0.1778,0 -0.3175,0.127 -0.3175,0.30903 0,0.0423 0.016933,0.10583 0.033867,0.14817 l 0.7747,1.79493 -0.021167,0.0508 c -0.059267,0.1143 -0.1143,0.13547 -0.2286,0.13547 -0.046567,0 -0.080433,-0.008 -0.1354667,-0.0254 -0.0254,-0.008 -0.055033,-0.0169 -0.1058333,-0.0169 -0.1312333,0 -0.254,0.10584 -0.254,0.26247 0,0.15663 0.1100667,0.23283 0.2032,0.2667 0.1058333,0.0381 0.2074333,0.0593 0.3513667,0.0593 z"
         style="font-style:normal;font-variant:normal;font-weight:normal;font-stretch:normal;font-size:4.23333px;font-family:'Gotham Rounded';-inkscape-font-specification:'Gotham Rounded';text-align:center;text-anchor:middle;stroke-width:0.264583px"
         id="path5031" />
      <path
         d="m 11.303198,178.67396 c 0,0.1778 0.1397,0.3175 0.3175,0.3175 0.1778,0 0.321734,-0.1397 0.321734,-0.3175 v -1.4732 l 0.563033,0.86784 c 0.06773,0.1016 0.1524,0.1651 0.270933,0.1651 0.118534,0 0.2032,-0.0635 0.270934,-0.1651 l 0.5715,-0.88054 v 1.47744 c 0,0.1778 0.143933,0.32596 0.321733,0.32596 0.182033,0 0.325966,-0.14393 0.325966,-0.32596 v -2.35374 c 0,-0.18203 -0.143933,-0.32596 -0.325966,-0.32596 h -0.07197 c -0.131233,0 -0.224366,0.055 -0.2921,0.1651 l -0.791633,1.28693 -0.7874,-1.2827 c -0.05927,-0.0974 -0.156633,-0.16933 -0.296333,-0.16933 h -0.07197 c -0.182033,0 -0.325967,0.14393 -0.325967,0.32596 z"
         style="font-style:normal;font-variant:normal;font-weight:normal;font-stretch:normal;font-size:4.23333px;font-family:'Gotham Rounded';-inkscape-font-specification:'Gotham Rounded';text-align:center;text-anchor:middle;stroke-width:0.264583px"
         id="path5033" />
      <path
         d="m 16.019925,179.01686 c 0.706967,0 1.2319,-0.52916 1.2319,-1.1811 v -0.008 c 0,-0.65194 -0.5207,-1.17264 -1.223433,-1.17264 -0.706967,0 -1.2319,0.52917 -1.2319,1.1811 v 0.008 c 0,0.65193 0.5207,1.17263 1.223433,1.17263 z m 0.0085,-0.55456 c -0.3556,0 -0.5969,-0.2921 -0.5969,-0.62654 v -0.008 c 0,-0.33444 0.220133,-0.61807 0.588433,-0.61807 0.3556,0 0.5969,0.2921 0.5969,0.62653 v 0.008 c 0,0.33443 -0.220133,0.61807 -0.588433,0.61807 z"
         style="font-style:normal;font-variant:normal;font-weight:normal;font-stretch:normal;font-size:4.23333px;font-family:'Gotham Rounded';-inkscape-font-specification:'Gotham Rounded';text-align:center;text-anchor:middle;stroke-width:0.264583px"
         id="path5035" />
      <path
         d="m 19.999523,176.17206 c 0,-0.1778 -0.143933,-0.32173 -0.321733,-0.32173 -0.1778,0 -0.321733,0.14393 -0.321733,0.32173 v 0.82127 c -0.1524,-0.18203 -0.364067,-0.33867 -0.706967,-0.33867 -0.537633,0 -1.032933,0.41487 -1.032933,1.17264 v 0.008 c 0,0.75777 0.503766,1.17264 1.032933,1.17264 0.334433,0 0.550333,-0.15664 0.706967,-0.3683 v 0.0296 c 0,0.1778 0.143933,0.32173 0.321733,0.32173 0.1778,0 0.321733,-0.14393 0.321733,-0.32173 z m -1.185333,1.0287 c 0.300567,0 0.550333,0.24977 0.550333,0.62654 v 0.008 c 0,0.37677 -0.249766,0.62654 -0.550333,0.62654 -0.300567,0 -0.554567,-0.24977 -0.554567,-0.62654 v -0.008 c 0,-0.381 0.254,-0.62654 0.554567,-0.62654 z"
         style="font-style:normal;font-variant:normal;font-weight:normal;font-stretch:normal;font-size:4.23333px;font-family:'Gotham Rounded';-inkscape-font-specification:'Gotham Rounded';text-align:center;text-anchor:middle;stroke-width:0.264583px"
         id="path5037" />
      <path
         d="m 22.640196,176.99333 c 0,-0.1778 -0.143933,-0.32173 -0.321733,-0.32173 -0.1778,0 -0.321733,0.14393 -0.321733,0.32173 v 0.96943 c 0,0.3048 -0.156634,0.46144 -0.402167,0.46144 -0.245533,0 -0.389467,-0.15664 -0.389467,-0.46144 v -0.96943 c 0,-0.1778 -0.143933,-0.32173 -0.321733,-0.32173 -0.1778,0 -0.321733,0.14393 -0.321733,0.32173 v 1.17263 c 0,0.5207 0.283633,0.84244 0.770466,0.84244 0.325967,0 0.516467,-0.17357 0.664634,-0.36407 v 0.0254 c 0,0.1778 0.143933,0.32173 0.321733,0.32173 0.1778,0 0.321733,-0.14393 0.321733,-0.32173 z"
         style="font-style:normal;font-variant:normal;font-weight:normal;font-stretch:normal;font-size:4.23333px;font-family:'Gotham Rounded';-inkscape-font-specification:'Gotham Rounded';text-align:center;text-anchor:middle;stroke-width:0.264583px"
         id="path5039" />
      <path
         d="m 23.245762,178.66973 c 0,0.1778 0.143933,0.32173 0.321733,0.32173 0.1778,0 0.321734,-0.14393 0.321734,-0.32173 v -2.49767 c 0,-0.1778 -0.143934,-0.32173 -0.321734,-0.32173 -0.1778,0 -0.321733,0.14393 -0.321733,0.32173 z"
         style="font-style:normal;font-variant:normal;font-weight:normal;font-stretch:normal;font-size:4.23333px;font-family:'Gotham Rounded';-inkscape-font-specification:'Gotham Rounded';text-align:center;text-anchor:middle;stroke-width:0.264583px"
         id="path5041" />
      <path
         d="m 25.018403,177.65373 c 0.0508,-0.2921 0.224367,-0.4826 0.491067,-0.4826 0.270933,0 0.440266,0.19473 0.478366,0.4826 z m 1.341967,1.08797 c 0.04657,-0.0423 0.08467,-0.10584 0.08467,-0.1905 0,-0.14394 -0.105833,-0.254 -0.249766,-0.254 -0.06773,0 -0.110067,0.0169 -0.156634,0.0508 -0.131233,0.0974 -0.2794,0.1524 -0.4572,0.1524 -0.287866,0 -0.491066,-0.1524 -0.554566,-0.4445 h 1.274233 c 0.169333,0 0.300567,-0.12277 0.300567,-0.30904 0,-0.4699 -0.334434,-1.0922 -1.0922,-1.0922 -0.6604,0 -1.121834,0.5334 -1.121834,1.1811 v 0.008 c 0,0.69427 0.503767,1.17263 1.185334,1.17263 0.3302,0 0.588433,-0.10583 0.7874,-0.27516 z"
         style="font-style:normal;font-variant:normal;font-weight:normal;font-stretch:normal;font-size:4.23333px;font-family:'Gotham Rounded';-inkscape-font-specification:'Gotham Rounded';text-align:center;text-anchor:middle;stroke-width:0.264583px"
         id="path5043" />
    </g>
    <path
       d="m 7.0441104,244.81326 0.6558137,-1.67852 0.6328832,1.67852 z m 0.4952999,-1.99038 -1.3162136,3.27449 h 0.3301999 l 0.3944055,-1.01812 h 1.4904858 l 0.3989916,1.01812 h 0.334786 l -1.2841108,-3.27449 z m 3.7927087,3.27449 v -2.36644 h -0.288924 v 1.24284 q 0,0.17886 -0.04128,0.35313 -0.04128,0.16969 -0.128412,0.30268 -0.08714,0.133 -0.220133,0.21555 -0.132997,0.078 -0.321028,0.078 -0.3439578,0 -0.4861272,-0.1651 -0.1375833,-0.1651 -0.1467555,-0.48612 v -1.54094 H 9.4105394 v 1.53635 q 0,0.21096 0.045861,0.37606 0.045861,0.1651 0.1421694,0.27975 0.1008944,0.11466 0.2568221,0.17428 0.160514,0.0642 0.385233,0.0642 0.265995,0 0.481542,-0.12382 0.220133,-0.12841 0.334786,-0.36689 h 0.0092 v 0.42651 z m 2.627845,0 v -3.27449 h -0.288925 v 1.35749 h -0.0092 q -0.04586,-0.12841 -0.132998,-0.22472 -0.08255,-0.0963 -0.192616,-0.16051 -0.110067,-0.0688 -0.238478,-0.1009 -0.123825,-0.0321 -0.256822,-0.0321 -0.270581,0 -0.47237,0.1009 -0.197202,0.10089 -0.330199,0.27516 -0.132998,0.16969 -0.197203,0.39899 -0.06421,0.22472 -0.06421,0.47696 0,0.25224 0.06421,0.48154 0.0642,0.22472 0.197203,0.39899 0.132997,0.16969 0.330199,0.27058 0.201789,0.0963 0.47237,0.0963 0.128411,0 0.256822,-0.0367 0.132997,-0.0367 0.24765,-0.10089 0.114653,-0.0688 0.201789,-0.1651 0.09172,-0.0963 0.137583,-0.21096 h 0.0092 v 0.44944 z M 12.0659,244.91415 q 0,-0.18344 0.04128,-0.3623 0.04586,-0.18345 0.137584,-0.32562 0.09631,-0.14217 0.243063,-0.2293 0.146756,-0.0917 0.353131,-0.0917 0.229305,0 0.385233,0.0917 0.160514,0.0871 0.256822,0.2293 0.100895,0.14217 0.14217,0.32562 0.04586,0.17886 0.04586,0.3623 0,0.18344 -0.04586,0.36689 -0.04128,0.17886 -0.14217,0.32103 -0.09631,0.14217 -0.256822,0.23389 -0.155928,0.0871 -0.385233,0.0871 -0.206375,0 -0.353131,-0.0871 -0.146755,-0.0917 -0.243063,-0.23389 -0.09172,-0.14217 -0.137584,-0.32103 -0.04128,-0.18345 -0.04128,-0.36689 z m 2.44898,-2.09127 v 0.4632 h 0.288925 v -0.4632 z m 0,0.90805 v 2.36644 h 0.288925 v -2.36644 z m 1.843614,0.17428 q 0.206375,0 0.362303,0.0871 0.155927,0.0871 0.256822,0.22931 0.10548,0.14217 0.155927,0.32561 0.05503,0.17886 0.05503,0.36689 0,0.18803 -0.05503,0.37147 -0.05045,0.17886 -0.155927,0.32103 -0.100895,0.14217 -0.256822,0.22931 -0.155928,0.0871 -0.362303,0.0871 -0.206375,0 -0.362303,-0.0871 -0.155928,-0.0871 -0.261408,-0.22931 -0.100895,-0.14217 -0.155928,-0.32103 -0.05045,-0.18344 -0.05045,-0.37147 0,-0.18803 0.05045,-0.36689 0.05503,-0.18344 0.155928,-0.32561 0.10548,-0.14217 0.261408,-0.22931 0.155928,-0.0871 0.362303,-0.0871 z m 0,-0.24307 q -0.270581,0 -0.481542,0.1009 -0.206375,0.10089 -0.348544,0.27058 -0.14217,0.16968 -0.215547,0.39899 -0.07338,0.22472 -0.07338,0.48154 0,0.25682 0.07338,0.48613 0.07338,0.22472 0.215547,0.3944 0.142169,0.16969 0.348544,0.27058 0.210961,0.0963 0.481542,0.0963 0.27058,0 0.476955,-0.0963 0.210961,-0.10089 0.353131,-0.27058 0.142169,-0.16968 0.215547,-0.3944 0.07338,-0.22931 0.07338,-0.48613 0,-0.25682 -0.07338,-0.48154 -0.07338,-0.22931 -0.215547,-0.39899 -0.14217,-0.16969 -0.353131,-0.27058 -0.206375,-0.1009 -0.476955,-0.1009 z m 2.903006,-0.83926 v 3.27449 h 0.311856 v -3.27449 z m 0.935567,0.90805 v 2.36644 h 0.288925 v -1.38042 q 0.0046,-0.17427 0.05503,-0.32103 0.05503,-0.15134 0.146755,-0.25682 0.09631,-0.11007 0.229306,-0.16969 0.137583,-0.0642 0.311855,-0.0642 0.174272,0 0.288925,0.055 0.119239,0.055 0.188031,0.15134 0.06879,0.0963 0.09631,0.22931 0.02752,0.12841 0.02752,0.27975 v 1.47673 h 0.288925 v -1.52259 q 0,-0.21096 -0.04127,-0.38065 -0.04128,-0.16969 -0.14217,-0.28434 -0.100894,-0.11924 -0.27058,-0.18344 -0.1651,-0.0642 -0.41275,-0.0642 -0.252236,0 -0.463197,0.133 -0.210961,0.12841 -0.293511,0.34396 h -0.0092 v -0.40817 z"
       id="text1"
       style="font-weight:300;font-size:4.58611px;font-family:'Helvetica Neue';-inkscape-font-specification:'Helvetica Neue Light';stroke-width:0.264583"
       aria-label="Audio In" />
    <path
       d="m 60.168592,244.84765 0.655813,-1.67852 0.632884,1.67852 z m 0.495299,-1.99037 -1.316213,3.27448 h 0.3302 l 0.394405,-1.01812 h 1.490486 l 0.398992,1.01812 h 0.334786 l -1.284111,-3.27448 z m 3.79271,3.27448 v -2.36643 h -0.288925 v 1.24283 q 0,0.17886 -0.04127,0.35313 -0.04127,0.16969 -0.128411,0.30269 -0.08714,0.13299 -0.220134,0.21554 -0.132997,0.078 -0.321027,0.078 -0.343959,0 -0.486128,-0.1651 -0.137583,-0.1651 -0.146756,-0.48613 v -1.54093 h -0.288924 v 1.53634 q 0,0.21096 0.04586,0.37606 0.04586,0.1651 0.142169,0.27976 0.100894,0.11465 0.256822,0.17427 0.160514,0.0642 0.385233,0.0642 0.265995,0 0.481542,-0.12383 0.220133,-0.12841 0.334786,-0.36689 h 0.0092 v 0.42651 z m 2.627844,0 v -3.27448 H 66.79552 v 1.35749 h -0.0092 q -0.04586,-0.12842 -0.132997,-0.22472 -0.08255,-0.0963 -0.192617,-0.16052 -0.110067,-0.0688 -0.238478,-0.10089 -0.123825,-0.0321 -0.256822,-0.0321 -0.27058,0 -0.472369,0.10089 -0.197203,0.10089 -0.3302,0.27517 -0.132997,0.16968 -0.197203,0.39899 -0.06421,0.22472 -0.06421,0.47695 0,0.25224 0.06421,0.48154 0.06421,0.22472 0.197203,0.399 0.132997,0.16968 0.3302,0.27058 0.201789,0.0963 0.472369,0.0963 0.128411,0 0.256822,-0.0367 0.132997,-0.0367 0.24765,-0.1009 0.114653,-0.0688 0.201789,-0.1651 0.09172,-0.0963 0.137583,-0.21096 h 0.0092 v 0.44944 z m -1.894064,-1.18322 q 0,-0.18344 0.04127,-0.3623 0.04586,-0.18344 0.137584,-0.32561 0.09631,-0.14217 0.243064,-0.22931 0.146755,-0.0917 0.35313,-0.0917 0.229306,0 0.385233,0.0917 0.160514,0.0871 0.256822,0.22931 0.100895,0.14217 0.14217,0.32561 0.04586,0.17886 0.04586,0.3623 0,0.18345 -0.04586,0.36689 -0.04127,0.17886 -0.14217,0.32103 -0.09631,0.14217 -0.256822,0.23389 -0.155927,0.0871 -0.385233,0.0871 -0.206375,0 -0.35313,-0.0871 -0.146756,-0.0917 -0.243064,-0.23389 -0.09172,-0.14217 -0.137584,-0.32103 -0.04127,-0.18344 -0.04127,-0.36689 z m 2.44898,-2.09126 v 0.46319 h 0.288925 v -0.46319 z m 0,0.90805 v 2.36643 h 0.288925 v -2.36643 z m 1.843614,0.17427 q 0.206375,0 0.362303,0.0871 0.155927,0.0871 0.256822,0.2293 0.10548,0.14217 0.155928,0.32561 0.05503,0.17886 0.05503,0.36689 0,0.18803 -0.05503,0.37148 -0.05045,0.17886 -0.155928,0.32103 -0.100895,0.14217 -0.256822,0.2293 -0.155928,0.0871 -0.362303,0.0871 -0.206375,0 -0.362303,-0.0871 -0.155927,-0.0871 -0.261408,-0.2293 -0.100894,-0.14217 -0.155928,-0.32103 -0.05045,-0.18345 -0.05045,-0.37148 0,-0.18803 0.05045,-0.36689 0.05503,-0.18344 0.155928,-0.32561 0.105481,-0.14217 0.261408,-0.2293 0.155928,-0.0871 0.362303,-0.0871 z m 0,-0.24306 q -0.27058,0 -0.481542,0.10089 -0.206374,0.10089 -0.348544,0.27058 -0.142169,0.16969 -0.215547,0.39899 -0.07338,0.22472 -0.07338,0.48154 0,0.25683 0.07338,0.48613 0.07338,0.22472 0.215547,0.39441 0.14217,0.16968 0.348544,0.27058 0.210962,0.0963 0.481542,0.0963 0.270581,0 0.476955,-0.0963 0.210962,-0.1009 0.353131,-0.27058 0.142169,-0.16969 0.215547,-0.39441 0.07338,-0.2293 0.07338,-0.48613 0,-0.25682 -0.07338,-0.48154 -0.07338,-0.2293 -0.215547,-0.39899 -0.142169,-0.16969 -0.353131,-0.27058 -0.206374,-0.10089 -0.476955,-0.10089 z m 3.017659,0.79798 q 0,-0.27058 0.06879,-0.5274 0.07338,-0.25683 0.220133,-0.45862 0.151342,-0.20637 0.385234,-0.3302 0.233891,-0.12382 0.559505,-0.12382 0.325614,0 0.554919,0.12382 0.233892,0.12383 0.380648,0.3302 0.151341,0.20179 0.220133,0.45862 0.07338,0.25682 0.07338,0.5274 0,0.26599 -0.07338,0.5274 -0.06879,0.25682 -0.220133,0.4632 -0.146756,0.20179 -0.380648,0.32561 -0.229305,0.12383 -0.554919,0.12383 -0.325614,0 -0.559505,-0.12383 -0.233892,-0.12382 -0.385234,-0.32561 -0.146755,-0.20638 -0.220133,-0.4632 -0.06879,-0.26141 -0.06879,-0.5274 z m -0.311855,0 q 0,0.33937 0.09631,0.64664 0.09631,0.30727 0.288925,0.54116 0.192617,0.23389 0.481542,0.37606 0.293511,0.13759 0.678744,0.13759 0.385233,0 0.674158,-0.13759 0.288925,-0.14217 0.481542,-0.37606 0.192616,-0.23389 0.288925,-0.54116 0.09631,-0.30727 0.09631,-0.64664 0,-0.33937 -0.09631,-0.64664 -0.09631,-0.30727 -0.288925,-0.54116 -0.192617,-0.23848 -0.481542,-0.37607 -0.288925,-0.14216 -0.674158,-0.14216 -0.385233,0 -0.678744,0.14216 -0.288925,0.13759 -0.481542,0.37607 -0.192616,0.23389 -0.288925,0.54116 -0.09631,0.30727 -0.09631,0.64664 z m 5.434536,1.63724 v -2.36643 H 77.33439 v 1.24283 q 0,0.17886 -0.04127,0.35313 -0.04127,0.16969 -0.128411,0.30269 -0.08714,0.13299 -0.220133,0.21554 -0.132998,0.078 -0.321028,0.078 -0.343958,0 -0.486128,-0.1651 -0.137583,-0.1651 -0.146755,-0.48613 v -1.54093 h -0.288925 v 1.53634 q 0,0.21096 0.04586,0.37606 0.04586,0.1651 0.142169,0.27976 0.100895,0.11465 0.256822,0.17427 0.160514,0.0642 0.385234,0.0642 0.265994,0 0.481541,-0.12383 0.220134,-0.12841 0.334786,-0.36689 h 0.0092 v 0.42651 z m 1.004363,-2.36643 v -0.71085 h -0.288925 v 0.71085 h -0.41275 v 0.24306 h 0.41275 v 1.6189 q -0.0046,0.30268 0.110066,0.41733 0.114653,0.11007 0.403578,0.11007 0.06421,0 0.128411,-0.005 0.06421,-0.005 0.128411,-0.005 v -0.24307 q -0.123825,0.0138 -0.24765,0.0138 -0.155928,-0.009 -0.197203,-0.0871 -0.03669,-0.0825 -0.03669,-0.22472 v -1.59597 h 0.481541 v -0.24306 z"
       id="text1-9"
       style="font-weight:300;font-size:4.58611px;font-family:'Helvetica Neue';-inkscape-font-specification:'Helvetica Neue Light';stroke-width:0.264583"
       aria-label="Audio Out" />
    <path
       d="m 31.296496,209.2821 q 0,-0.27058 0.06879,-0.5274 0.07338,-0.25682 0.220134,-0.45861 0.151341,-0.20638 0.385233,-0.3302 0.233891,-0.12383 0.559505,-0.12383 0.325614,0 0.55492,0.12383 0.233891,0.12382 0.380647,0.3302 0.151341,0.20179 0.220133,0.45861 0.07338,0.25682 0.07338,0.5274 0,0.266 -0.07338,0.5274 -0.06879,0.25683 -0.220133,0.4632 -0.146756,0.20179 -0.380647,0.32561 -0.229306,0.12383 -0.55492,0.12383 -0.325614,0 -0.559505,-0.12383 -0.233892,-0.12382 -0.385233,-0.32561 -0.146756,-0.20637 -0.220134,-0.4632 -0.06879,-0.2614 -0.06879,-0.5274 z m -0.311856,0 q 0,0.33937 0.09631,0.64664 0.09631,0.30727 0.288924,0.54116 0.192617,0.23389 0.481542,0.37606 0.293511,0.13759 0.678744,0.13759 0.385234,0 0.674159,-0.13759 0.288924,-0.14217 0.481541,-0.37606 0.192617,-0.23389 0.288925,-0.54116 0.09631,-0.30727 0.09631,-0.64664 0,-0.33937 -0.09631,-0.64664 -0.09631,-0.30727 -0.288925,-0.54116 -0.192617,-0.23848 -0.481541,-0.37606 -0.288925,-0.14217 -0.674159,-0.14217 -0.385233,0 -0.678744,0.14217 -0.288925,0.13758 -0.481542,0.37606 -0.192616,0.23389 -0.288924,0.54116 -0.09631,0.30727 -0.09631,0.64664 z m 3.251549,-0.72919 0.912636,2.36643 h 0.307269 l 0.885119,-2.36643 h -0.298097 l -0.733778,2.07751 h -0.0092 l -0.74295,-2.07751 z m 4.090807,1.01812 h -1.531761 q 0.01834,-0.16052 0.07338,-0.31186 0.05962,-0.15593 0.155928,-0.27058 0.09631,-0.11924 0.233891,-0.18803 0.137583,-0.0734 0.316442,-0.0734 0.174272,0 0.311855,0.0734 0.137584,0.0688 0.233892,0.18803 0.09631,0.11465 0.146755,0.26599 0.05503,0.15135 0.05962,0.31645 z m -1.531761,0.24306 h 1.820686 q 0.0092,-0.24765 -0.04586,-0.48613 -0.05503,-0.24306 -0.183445,-0.42651 -0.123825,-0.18803 -0.325614,-0.30268 -0.201788,-0.11465 -0.486127,-0.11465 -0.279753,0 -0.486128,0.11006 -0.201789,0.10548 -0.3302,0.28434 -0.128411,0.17428 -0.192616,0.39899 -0.05962,0.22472 -0.05962,0.45862 0,0.25223 0.05962,0.48154 0.06421,0.22472 0.192616,0.39899 0.128411,0.16968 0.3302,0.27058 0.206375,0.0963 0.486128,0.0963 0.449439,0 0.692502,-0.22014 0.24765,-0.22013 0.339373,-0.62371 h -0.288925 q -0.06879,0.27517 -0.24765,0.44027 -0.178859,0.1651 -0.4953,0.1651 -0.206375,0 -0.353131,-0.0871 -0.146755,-0.0871 -0.243064,-0.22013 -0.09631,-0.133 -0.142169,-0.2981 -0.04127,-0.16968 -0.04127,-0.32561 z m 2.210501,-1.26118 v 2.36643 h 0.288925 v -1.26118 q 0,-0.18803 0.06421,-0.34396 0.06421,-0.16051 0.178859,-0.27516 0.119239,-0.11466 0.279752,-0.17428 0.160514,-0.0642 0.357717,-0.055 v -0.28892 q -0.321028,-0.0138 -0.554919,0.14217 -0.229306,0.15592 -0.339372,0.44485 h -0.0092 v -0.55492 z m 3.444172,2.36643 v -3.27448 h -0.288925 v 1.35749 h -0.0092 q -0.04586,-0.12841 -0.132997,-0.22472 -0.08255,-0.0963 -0.192617,-0.16052 -0.110066,-0.0688 -0.238478,-0.10089 -0.123825,-0.0321 -0.256822,-0.0321 -0.27058,0 -0.472369,0.10089 -0.197203,0.1009 -0.3302,0.27517 -0.132997,0.16968 -0.197203,0.39899 -0.06421,0.22472 -0.06421,0.47696 0,0.25223 0.06421,0.48154 0.06421,0.22472 0.197203,0.39899 0.132997,0.16968 0.3302,0.27058 0.201789,0.0963 0.472369,0.0963 0.128411,0 0.256822,-0.0367 0.132998,-0.0367 0.24765,-0.1009 0.114653,-0.0688 0.201789,-0.1651 0.09172,-0.0963 0.137584,-0.21096 h 0.0092 v 0.44944 z m -1.894063,-1.18321 q 0,-0.18345 0.04127,-0.36231 0.04586,-0.18344 0.137583,-0.32561 0.09631,-0.14217 0.243064,-0.22931 0.146755,-0.0917 0.35313,-0.0917 0.229306,0 0.385234,0.0917 0.160513,0.0871 0.256822,0.22931 0.100894,0.14217 0.142169,0.32561 0.04586,0.17886 0.04586,0.36231 0,0.18344 -0.04586,0.36688 -0.04127,0.17886 -0.142169,0.32103 -0.09631,0.14217 -0.256822,0.23389 -0.155928,0.0871 -0.385234,0.0871 -0.206375,0 -0.35313,-0.0871 -0.146756,-0.0917 -0.243064,-0.23389 -0.09172,-0.14217 -0.137583,-0.32103 -0.04127,-0.18344 -0.04127,-0.36688 z m 2.444394,-1.18322 v 2.36643 h 0.288925 v -1.26118 q 0,-0.18803 0.06421,-0.34396 0.06421,-0.16051 0.178858,-0.27516 0.119239,-0.11466 0.279753,-0.17428 0.160514,-0.0642 0.357717,-0.055 v -0.28892 q -0.321028,-0.0138 -0.55492,0.14217 -0.229305,0.15592 -0.339372,0.44485 h -0.0092 v -0.55492 z m 1.449213,-0.90805 v 0.4632 h 0.288925 v -0.4632 z m 0,0.90805 v 2.36643 h 0.288925 v -2.36643 z m 0.577848,0 0.912636,2.36643 h 0.307269 l 0.885119,-2.36643 h -0.298097 l -0.733778,2.07751 h -0.0092 l -0.74295,-2.07751 z m 4.090806,1.01812 h -1.53176 q 0.01834,-0.16052 0.07338,-0.31186 0.05962,-0.15593 0.155928,-0.27058 0.09631,-0.11924 0.233892,-0.18803 0.137583,-0.0734 0.316441,-0.0734 0.174272,0 0.311856,0.0734 0.137583,0.0688 0.233891,0.18803 0.09631,0.11465 0.146756,0.26599 0.05503,0.15135 0.05962,0.31645 z m -1.53176,0.24306 h 1.820685 q 0.0092,-0.24765 -0.04586,-0.48613 -0.05503,-0.24306 -0.183444,-0.42651 -0.123825,-0.18803 -0.325614,-0.30268 -0.201789,-0.11465 -0.486128,-0.11465 -0.279752,0 -0.486127,0.11006 -0.201789,0.10548 -0.3302,0.28434 -0.128411,0.17428 -0.192617,0.39899 -0.05962,0.22472 -0.05962,0.45862 0,0.25223 0.05962,0.48154 0.06421,0.22472 0.192617,0.39899 0.128411,0.16968 0.3302,0.27058 0.206375,0.0963 0.486127,0.0963 0.449439,0 0.692503,-0.22014 0.24765,-0.22013 0.339372,-0.62371 h -0.288925 q -0.06879,0.27517 -0.24765,0.44027 -0.178858,0.1651 -0.4953,0.1651 -0.206375,0 -0.35313,-0.0871 -0.146756,-0.0871 -0.243064,-0.22013 -0.09631,-0.133 -0.142169,-0.2981 -0.04127,-0.16968 -0.04127,-0.32561 z"
       id="text1-1"
       style="font-weight:300;font-size:4.58611px;font-family:'Helvetica Neue';-inkscape-font-specification:'Helvetica Neue Light';stroke-width:0.264583"
       aria-label="Overdrive" />
  </g>
  <g
     inkscape:groupmode="layer"
     id="layer2"
     inkscape:label="components"
     transform="translate(0,1.0517578e-5)">
    <circle
       style="display:inline;opacity:1;vector-effect:none;fill:#ff0000;fill-opacity:1;fill-rule:evenodd;stroke:none;stroke-width:1;stroke-linecap:butt;stroke-linejoin:miter;stroke-miterlimit:4;stroke-dasharray:none;stroke-dashoffset:0;stroke-opacity:1;paint-order:normal"
       id="path4954"
       cx="40.196491"
       cy="32.699787"
       r="4"
       inkscape:label="overdrive_amount" />
    <circle
       r="4"
       cy="64.249992"
       cx="14.170922"
       id="circle4956"
       style="display:inline;opacity:1;vector-effect:none;fill:#00ff00;fill-opacity:1;fill-rule:evenodd;stroke:none;stroke-width:1;stroke-linecap:butt;stroke-linejoin:miter;stroke-miterlimit:4;stroke-dasharray:none;stroke-dashoffset:0;stroke-opacity:1;paint-order:normal"
       inkscape:label="audio_in" />
    <circle
       style="display:inline;opacity:1;vector-effect:none;fill:#0000ff;fill-opacity:1;fill-rule:evenodd;stroke:none;stroke-width:1;stroke-linecap:butt;stroke-linejoin:miter;stroke-miterlimit:4;stroke-dasharray:none;stroke-dashoffset:0;stroke-opacity:1;paint-order:normal"
       id="circle4958"
       cx="69.228447"
       cy="64.249992"
       r="4"
       inkscape:label="audio_out" />
  </g>
</svg>
